<svg width="1280" height="720" xmlns="http://www.w3.org/2000/svg" xmlns:xlink="http://www.w3.org/1999/xlink" overflow="hidden"><defs><filter id="fx0" x="-10%" y="-10%" width="120%" height="120%" filterUnits="userSpaceOnUse" primitiveUnits="userSpaceOnUse"><feComponentTransfer color-interpolation-filters="sRGB"><feFuncR type="discrete" tableValues="0 0"/><feFuncG type="discrete" tableValues="0 0"/><feFuncB type="discrete" tableValues="0 0"/><feFuncA type="linear" slope="0.4" intercept="0"/></feComponentTransfer><feGaussianBlur stdDeviation="1.77778 1.77778"/></filter><filter id="fx1" x="-10%" y="-10%" width="120%" height="120%" filterUnits="userSpaceOnUse" primitiveUnits="userSpaceOnUse"><feComponentTransfer color-interpolation-filters="sRGB"><feFuncR type="discrete" tableValues="0 0"/><feFuncG type="discrete" tableValues="0 0"/><feFuncB type="discrete" tableValues="0 0"/><feFuncA type="linear" slope="0.4" intercept="0"/></feComponentTransfer><feGaussianBlur stdDeviation="1.77778 1.77778"/></filter><filter id="fx2" x="-10%" y="-10%" width="120%" height="120%" filterUnits="userSpaceOnUse" primitiveUnits="userSpaceOnUse"><feComponentTransfer color-interpolation-filters="sRGB"><feFuncR type="discrete" tableValues="0 0"/><feFuncG type="discrete" tableValues="0 0"/><feFuncB type="discrete" tableValues="0 0"/><feFuncA type="linear" slope="0.4" intercept="0"/></feComponentTransfer><feGaussianBlur stdDeviation="1.77778 1.77778"/></filter><filter id="fx3" x="-10%" y="-10%" width="120%" height="120%" filterUnits="userSpaceOnUse" primitiveUnits="userSpaceOnUse"><feComponentTransfer color-interpolation-filters="sRGB"><feFuncR type="discrete" tableValues="0 0"/><feFuncG type="discrete" tableValues="0 0"/><feFuncB type="discrete" tableValues="0 0"/><feFuncA type="linear" slope="0.4" intercept="0"/></feComponentTransfer><feGaussianBlur stdDeviation="1.77778 1.77778"/></filter><filter id="fx4" x="-10%" y="-10%" width="120%" height="120%" filterUnits="userSpaceOnUse" primitiveUnits="userSpaceOnUse"><feComponentTransfer color-interpolation-filters="sRGB"><feFuncR type="discrete" tableValues="0 0"/><feFuncG type="discrete" tableValues="0 0"/><feFuncB type="discrete" tableValues="0 0"/><feFuncA type="linear" slope="0.4" intercept="0"/></feComponentTransfer><feGaussianBlur stdDeviation="1.77778 1.77778"/></filter><filter id="fx5" x="-10%" y="-10%" width="120%" height="120%" filterUnits="userSpaceOnUse" primitiveUnits="userSpaceOnUse"><feComponentTransfer color-interpolation-filters="sRGB"><feFuncR type="discrete" tableValues="0 0"/><feFuncG type="discrete" tableValues="0 0"/><feFuncB type="discrete" tableValues="0 0"/><feFuncA type="linear" slope="0.4" intercept="0"/></feComponentTransfer><feGaussianBlur stdDeviation="1.77778 1.77778"/></filter><clipPath id="clip6"><path d="M978 36 905 182 978 328 1170 328 1243 182 1170 36ZM1.90735e-05 1.07288e-05 1280 1.07288e-05 1280 720 1.90735e-05 720Z" fill-rule="evenodd" clip-rule="evenodd"/></clipPath><clipPath id="clip7"><path d="M1039 328 1039 695 1102 695 1102 328ZM1.90735e-05 1.07288e-05 1280 1.07288e-05 1280 720 1.90735e-05 720Z" fill-rule="evenodd" clip-rule="evenodd"/></clipPath><clipPath id="clip8"><path d="M62.5005 36C48.417 36 37 47.417 37 61.5006L37 163.499C37 177.583 48.417 189 62.5005 189L407.5 189C421.583 189 433 177.583 433 163.499L433 61.5006C433 47.417 421.583 36 407.5 36ZM1.90735e-05 1.07288e-05 1280 1.07288e-05 1280 720 1.90735e-05 720Z" fill-rule="evenodd" clip-rule="evenodd"/></clipPath><clipPath id="clip9"><path d="M472.501 36C458.417 36 447 47.417 447 61.5007L447 163.499C447 177.583 458.417 189 472.501 189L818.499 189C832.583 189 844 177.583 844 163.499L844 61.5007C844 47.417 832.583 36 818.499 36ZM1.90735e-05 1.07288e-05 1280 1.07288e-05 1280 720 1.90735e-05 720Z" fill-rule="evenodd" clip-rule="evenodd"/></clipPath><clipPath id="clip10"><path d="M137.168 258C98.4154 258 67 289.415 67 328.168L67 608.832C67 647.585 98.4154 679 137.168 679L752.832 679C791.585 679 823 647.585 823 608.832L823 328.168C823 289.415 791.585 258 752.832 258ZM1.90735e-05 1.07288e-05 1280 1.07288e-05 1280 720 1.90735e-05 720Z" fill-rule="evenodd" clip-rule="evenodd"/></clipPath><clipPath id="clip11"><path d="M945.334 392C929.133 392 916 405.133 916 421.334L916 538.666C916 554.867 929.133 568 945.334 568L1195.67 568C1211.87 568 1225 554.867 1225 538.666L1225 421.334C1225 405.133 1211.87 392 1195.67 392ZM1.90735e-05 1.07288e-05 1280 1.07288e-05 1280 720 1.90735e-05 720Z" fill-rule="evenodd" clip-rule="evenodd"/></clipPath></defs><g><rect x="0" y="0" width="1280" height="720" fill="#FFFFFF"/><path d="M890 74.6676C890 40.6095 917.61 13 951.668 13L1198.33 13C1232.39 13 1260 40.6095 1260 74.6676L1260 645.332C1260 679.39 1232.39 707 1198.33 707L951.668 707C917.61 707 890 679.39 890 645.332Z" stroke="#042433" stroke-width="2" stroke-miterlimit="8" fill="#00B0F0" fill-rule="evenodd"/><g clip-path="url(#clip6)"><g filter="url(#fx0)" transform="translate(900 31)"><g><path d="M7.86194 158.239 83.052 7.85843 280.812 7.85843 356.002 158.239 280.812 308.618 83.052 308.618Z" stroke="#000000" stroke-width="2" stroke-miterlimit="8" fill="#FF0000" fill-rule="evenodd"/></g></g></g><path d="M905 182 978 36 1170 36 1243 182 1170 328 978 328Z" stroke="#000000" stroke-width="2" stroke-miterlimit="8" fill="#FF0000" fill-rule="evenodd"/><g clip-path="url(#clip7)"><g filter="url(#fx1)" transform="translate(1034 323)"><g><rect x="7.8584" y="7.85843" width="64.89" height="378.01" stroke="#000000" stroke-width="2" stroke-miterlimit="8" fill="#AEAEAE"/></g></g></g><rect x="1039" y="328" width="63" height="367" stroke="#000000" stroke-width="2" stroke-miterlimit="8" fill="#AEAEAE"/><path d="M20 46.0005C20 27.7748 34.7748 13 53.0004 13L837.999 13C856.225 13 871 27.7748 871 46.0005L871 178C871 196.225 856.225 211 837.999 211L53.0004 211C34.7748 211 20 196.225 20 178Z" stroke="#042433" stroke-width="2" stroke-miterlimit="8" fill="#FFC000" fill-rule="evenodd"/><path d="M20 309.501C20 265.594 55.5939 230 99.5011 230L791.499 230C835.406 230 871 265.594 871 309.501L871 627.499C871 671.406 835.406 707 791.499 707L99.5011 707C55.5939 707 20 671.406 20 627.499Z" stroke="#042433" stroke-width="2" stroke-miterlimit="8" fill="#00B0F0" fill-rule="evenodd"/><g clip-path="url(#clip8)"><g filter="url(#fx2)" transform="translate(32 31)"><g><path d="M7.85843 34.124C7.85843 19.6179 19.6179 7.85843 34.124 7.85843L389.473 7.85843C403.979 7.85843 415.738 19.6179 415.738 34.124L415.738 139.183C415.738 153.689 403.979 165.448 389.473 165.448L34.124 165.448C19.6179 165.448 7.85843 153.689 7.85843 139.183Z" stroke="#042433" stroke-width="2" stroke-miterlimit="8" fill="#FFFF66" fill-rule="evenodd"/></g></g></g><path d="M37 61.5006C37 47.417 48.417 36 62.5005 36L407.499 36C421.583 36 433 47.417 433 61.5006L433 163.499C433 177.583 421.583 189 407.499 189L62.5005 189C48.417 189 37 177.583 37 163.499Z" stroke="#042433" stroke-width="2" stroke-miterlimit="8" fill="#FFFF66" fill-rule="evenodd"/><g clip-path="url(#clip9)"><g filter="url(#fx3)" transform="translate(442 31)"><g><path d="M7.85843 34.1241C7.85843 19.618 19.618 7.85843 34.1241 7.85843L390.503 7.85843C405.009 7.85843 416.768 19.618 416.768 34.1241L416.768 139.183C416.768 153.689 405.009 165.448 390.503 165.448L34.1241 165.448C19.618 165.448 7.85843 153.689 7.85843 139.183Z" stroke="#042433" stroke-width="2" stroke-miterlimit="8" fill="#FFFF66" fill-rule="evenodd"/></g></g></g><path d="M447 61.5007C447 47.417 458.417 36 472.501 36L818.499 36C832.583 36 844 47.417 844 61.5007L844 163.499C844 177.583 832.583 189 818.499 189L472.501 189C458.417 189 447 177.583 447 163.499Z" stroke="#042433" stroke-width="2" stroke-miterlimit="8" fill="#FFFF66" fill-rule="evenodd"/><g clip-path="url(#clip10)"><g filter="url(#fx4)" transform="translate(62 253)"><g><path d="M7.85843 80.1317C7.85843 40.2163 40.2162 7.85843 80.1316 7.85843L714.265 7.85843C754.181 7.85843 786.538 40.2163 786.538 80.1317L786.538 369.215C786.538 409.131 754.181 441.488 714.265 441.488L80.1316 441.488C40.2162 441.488 7.85843 409.131 7.85843 369.215Z" stroke="#042433" stroke-width="2" stroke-miterlimit="8" fill="#FFFFFF" fill-rule="evenodd"/></g></g></g><path d="M67 328.168C67 289.415 98.4153 258 137.168 258L752.832 258C791.585 258 823 289.415 823 328.168L823 608.832C823 647.585 791.585 679 752.832 679L137.168 679C98.4153 679 67 647.585 67 608.832Z" stroke="#042433" stroke-width="2" stroke-miterlimit="8" fill="#FFFFFF" fill-rule="evenodd"/><g clip-path="url(#clip11)"><g filter="url(#fx5)" transform="translate(911 387)"><g><path d="M7.8584 38.0725C7.8584 21.3857 21.3857 7.85843 38.0725 7.85843L295.914 7.85843C312.601 7.85843 326.128 21.3857 326.128 38.0725L326.128 158.924C326.128 175.611 312.601 189.138 295.914 189.138L38.0725 189.138C21.3857 189.138 7.8584 175.611 7.8584 158.924Z" stroke="#000000" stroke-width="2" stroke-miterlimit="8" fill="#029A96" fill-rule="evenodd"/></g></g></g><path d="M916 421.334C916 405.133 929.133 392 945.334 392L1195.67 392C1211.87 392 1225 405.133 1225 421.334L1225 538.666C1225 554.867 1211.87 568 1195.67 568L945.334 568C929.133 568 916 554.867 916 538.666Z" stroke="#000000" stroke-width="2" stroke-miterlimit="8" fill="#029A96" fill-rule="evenodd"/></g></svg>