<svg width="1280" height="720" xmlns="http://www.w3.org/2000/svg" xmlns:xlink="http://www.w3.org/1999/xlink" overflow="hidden"><defs><filter id="fx0" x="-10%" y="-10%" width="120%" height="120%" filterUnits="userSpaceOnUse" primitiveUnits="userSpaceOnUse"><feComponentTransfer color-interpolation-filters="sRGB"><feFuncR type="discrete" tableValues="0 0"/><feFuncG type="discrete" tableValues="0 0"/><feFuncB type="discrete" tableValues="0 0"/><feFuncA type="linear" slope="0.4" intercept="0"/></feComponentTransfer><feGaussianBlur stdDeviation="1.77778 1.77778"/></filter><filter id="fx1" x="-10%" y="-10%" width="120%" height="120%" filterUnits="userSpaceOnUse" primitiveUnits="userSpaceOnUse"><feComponentTransfer color-interpolation-filters="sRGB"><feFuncR type="discrete" tableValues="0 0"/><feFuncG type="discrete" tableValues="0 0"/><feFuncB type="discrete" tableValues="0 0"/><feFuncA type="linear" slope="0.4" intercept="0"/></feComponentTransfer><feGaussianBlur stdDeviation="1.77778 1.77778"/></filter><filter id="fx2" x="-10%" y="-10%" width="120%" height="120%" filterUnits="userSpaceOnUse" primitiveUnits="userSpaceOnUse"><feComponentTransfer color-interpolation-filters="sRGB"><feFuncR type="discrete" tableValues="0 0"/><feFuncG type="discrete" tableValues="0 0"/><feFuncB type="discrete" tableValues="0 0"/><feFuncA type="linear" slope="0.4" intercept="0"/></feComponentTransfer><feGaussianBlur stdDeviation="1.77778 1.77778"/></filter><clipPath id="clip3"><path d="M966.167 64C943.984 64 926 81.9836 926 104.168L926 264.832C926 287.016 943.984 305 966.167 305L1168.83 305C1191.02 305 1209 287.016 1209 264.832L1209 104.168C1209 81.9836 1191.02 64 1168.83 64ZM1.90735e-05 1.07288e-05 1280 1.07288e-05 1280 720 1.90735e-05 720Z" fill-rule="evenodd" clip-rule="evenodd"/></clipPath><clipPath id="clip4"><path d="M966.001 416C943.909 416 926 433.909 926 456.001L926 615.999C926 638.091 943.909 656 966.001 656L1169 656C1191.09 656 1209 638.091 1209 615.999L1209 456.001C1209 433.909 1191.09 416 1169 416ZM1.90735e-05 1.07288e-05 1280 1.07288e-05 1280 720 1.90735e-05 720Z" fill-rule="evenodd" clip-rule="evenodd"/></clipPath><clipPath id="clip5"><path d="M196.002 69C142.429 69 99 112.429 99 166.002L99 553.998C99 607.571 142.429 651 196.002 651L685.998 651C739.571 651 783 607.571 783 553.998L783 166.002C783 112.429 739.571 69 685.998 69ZM1.90735e-05 1.07288e-05 1280 1.07288e-05 1280 720 1.90735e-05 720Z" fill-rule="evenodd" clip-rule="evenodd"/></clipPath></defs><g><rect x="0" y="0" width="1280" height="720" fill="#FFFFFF"/><path d="M29 138.669C29 77.5481 78.548 28 139.669 28L742.331 28C803.452 28 853 77.5481 853 138.669L853 581.331C853 642.452 803.452 692 742.331 692L139.669 692C78.548 692 29 642.452 29 581.331Z" stroke="#042433" stroke-width="2" stroke-miterlimit="8" fill="#00B0F0" fill-rule="evenodd"/><path d="M885 80.0009C885 51.2816 908.282 28 937.001 28L1199 28C1227.72 28 1251 51.2816 1251 80.0009L1251 287.999C1251 316.718 1227.72 340 1199 340L937.001 340C908.282 340 885 316.718 885 287.999Z" stroke="#042433" stroke-width="2" stroke-miterlimit="8" fill="#FFC000" fill-rule="evenodd"/><path d="M885 432.001C885 403.282 908.282 380 937.001 380L1199 380C1227.72 380 1251 403.282 1251 432.001L1251 639.999C1251 668.718 1227.72 692 1199 692L937.001 692C908.282 692 885 668.718 885 639.999Z" stroke="#042433" stroke-width="2" stroke-miterlimit="8" fill="#FFC000" fill-rule="evenodd"/><g clip-path="url(#clip3)"><g filter="url(#fx0)" transform="translate(921 59)"><g><path d="M7.8584 49.2309C7.8584 26.3815 26.3815 7.85843 49.2309 7.85843L257.976 7.85843C280.825 7.85843 299.348 26.3815 299.348 49.2309L299.348 214.716C299.348 237.565 280.825 256.088 257.976 256.088L49.2309 256.088C26.3815 256.088 7.8584 237.565 7.8584 214.716Z" stroke="#042433" stroke-width="2" stroke-miterlimit="8" fill="#FFFFFF" fill-rule="evenodd"/></g></g></g><path d="M926 104.167C926 81.9836 943.984 64 966.167 64L1168.83 64C1191.02 64 1209 81.9836 1209 104.167L1209 264.832C1209 287.016 1191.02 305 1168.83 305L966.167 305C943.984 305 926 287.016 926 264.832Z" stroke="#042433" stroke-width="2" stroke-miterlimit="8" fill="#FFFFFF" fill-rule="evenodd"/><g clip-path="url(#clip4)"><g filter="url(#fx1)" transform="translate(921 411)"><g><path d="M7.8584 49.0592C7.8584 26.3046 26.3046 7.85843 49.0591 7.85843L258.148 7.85843C280.902 7.85843 299.348 26.3046 299.348 49.0592L299.348 213.858C299.348 236.612 280.902 255.058 258.148 255.058L49.0591 255.058C26.3046 255.058 7.8584 236.612 7.8584 213.858Z" stroke="#042433" stroke-width="2" stroke-miterlimit="8" fill="#FFFFFF" fill-rule="evenodd"/></g></g></g><path d="M926 456.001C926 433.909 943.909 416 966.001 416L1169 416C1191.09 416 1209 433.909 1209 456.001L1209 615.999C1209 638.091 1191.09 656 1169 656L966.001 656C943.909 656 926 638.091 926 615.999Z" stroke="#042433" stroke-width="2" stroke-miterlimit="8" fill="#FFFFFF" fill-rule="evenodd"/><g clip-path="url(#clip5)"><g filter="url(#fx2)" transform="translate(94 64)"><g><path d="M7.85843 107.77C7.85843 52.5905 52.5905 7.85843 107.77 7.85843L612.467 7.85843C667.646 7.85843 712.378 52.5905 712.378 107.77L712.378 507.407C712.378 562.586 667.646 607.318 612.467 607.318L107.77 607.318C52.5905 607.318 7.85843 562.586 7.85843 507.407Z" stroke="#042433" stroke-width="2" stroke-miterlimit="8" fill="#FFFFFF" fill-rule="evenodd"/></g></g></g><path d="M99 166.002C99 112.429 142.429 69 196.002 69L685.998 69C739.571 69 783 112.429 783 166.002L783 553.998C783 607.571 739.571 651 685.998 651L196.002 651C142.429 651 99 607.571 99 553.998Z" stroke="#042433" stroke-width="2" stroke-miterlimit="8" fill="#FFFFFF" fill-rule="evenodd"/></g></svg>