<svg width="1280" height="720" xmlns="http://www.w3.org/2000/svg" xmlns:xlink="http://www.w3.org/1999/xlink" overflow="hidden"><defs><filter id="fx0" x="-10%" y="-10%" width="120%" height="120%" filterUnits="userSpaceOnUse" primitiveUnits="userSpaceOnUse"><feComponentTransfer color-interpolation-filters="sRGB"><feFuncR type="discrete" tableValues="0 0"/><feFuncG type="discrete" tableValues="0 0"/><feFuncB type="discrete" tableValues="0 0"/><feFuncA type="linear" slope="0.4" intercept="0"/></feComponentTransfer><feGaussianBlur stdDeviation="1.77778 1.77778"/></filter><filter id="fx1" x="-10%" y="-10%" width="120%" height="120%" filterUnits="userSpaceOnUse" primitiveUnits="userSpaceOnUse"><feComponentTransfer color-interpolation-filters="sRGB"><feFuncR type="discrete" tableValues="0 0"/><feFuncG type="discrete" tableValues="0 0"/><feFuncB type="discrete" tableValues="0 0"/><feFuncA type="linear" slope="0.4" intercept="0"/></feComponentTransfer><feGaussianBlur stdDeviation="1.77778 1.77778"/></filter><filter id="fx2" x="-10%" y="-10%" width="120%" height="120%" filterUnits="userSpaceOnUse" primitiveUnits="userSpaceOnUse"><feComponentTransfer color-interpolation-filters="sRGB"><feFuncR type="discrete" tableValues="0 0"/><feFuncG type="discrete" tableValues="0 0"/><feFuncB type="discrete" tableValues="0 0"/><feFuncA type="linear" slope="0.4" intercept="0"/></feComponentTransfer><feGaussianBlur stdDeviation="1.77778 1.77778"/></filter><filter id="fx3" x="-10%" y="-10%" width="120%" height="120%" filterUnits="userSpaceOnUse" primitiveUnits="userSpaceOnUse"><feComponentTransfer color-interpolation-filters="sRGB"><feFuncR type="discrete" tableValues="0 0"/><feFuncG type="discrete" tableValues="0 0"/><feFuncB type="discrete" tableValues="0 0"/><feFuncA type="linear" slope="0.4" intercept="0"/></feComponentTransfer><feGaussianBlur stdDeviation="1.77778 1.77778"/></filter><filter id="fx4" x="-10%" y="-10%" width="120%" height="120%" filterUnits="userSpaceOnUse" primitiveUnits="userSpaceOnUse"><feComponentTransfer color-interpolation-filters="sRGB"><feFuncR type="discrete" tableValues="0 0"/><feFuncG type="discrete" tableValues="0 0"/><feFuncB type="discrete" tableValues="0 0"/><feFuncA type="linear" slope="0.4" intercept="0"/></feComponentTransfer><feGaussianBlur stdDeviation="1.77778 1.77778"/></filter><filter id="fx5" x="-10%" y="-10%" width="120%" height="120%" filterUnits="userSpaceOnUse" primitiveUnits="userSpaceOnUse"><feComponentTransfer color-interpolation-filters="sRGB"><feFuncR type="discrete" tableValues="0 0"/><feFuncG type="discrete" tableValues="0 0"/><feFuncB type="discrete" tableValues="0 0"/><feFuncA type="linear" slope="0.4" intercept="0"/></feComponentTransfer><feGaussianBlur stdDeviation="1.77778 1.77778"/></filter><filter id="fx6" x="-10%" y="-10%" width="120%" height="120%" filterUnits="userSpaceOnUse" primitiveUnits="userSpaceOnUse"><feComponentTransfer color-interpolation-filters="sRGB"><feFuncR type="discrete" tableValues="0 0"/><feFuncG type="discrete" tableValues="0 0"/><feFuncB type="discrete" tableValues="0 0"/><feFuncA type="linear" slope="0.4" intercept="0"/></feComponentTransfer><feGaussianBlur stdDeviation="1.77778 1.77778"/></filter><clipPath id="clip7"><path d="M1140 28.5001C1082.84 28.5001 1036.5 75.0624 1036.5 132.5 1036.5 189.938 1082.84 236.5 1140 236.5 1197.16 236.5 1243.5 189.938 1243.5 132.5 1243.5 75.0624 1197.16 28.5001 1140 28.5001ZM1.90735e-05 1.07288e-05 1280 1.07288e-05 1280 720 1.90735e-05 720Z" fill-rule="evenodd" clip-rule="evenodd"/></clipPath><clipPath id="clip8"><path d="M147.668 270.5C110.572 270.5 80.5001 300.572 80.5001 337.668L80.5001 606.332C80.5001 643.428 110.572 673.5 147.668 673.5L848.332 673.5C885.428 673.5 915.5 643.428 915.5 606.332L915.5 337.668C915.5 300.572 885.428 270.5 848.332 270.5ZM1.90735e-05 1.07288e-05 1280 1.07288e-05 1280 720 1.90735e-05 720Z" fill-rule="evenodd" clip-rule="evenodd"/></clipPath><clipPath id="clip9"><path d="M55.1673 21.5001C38.7825 21.5001 25.5001 34.7825 25.5001 51.1673L25.5001 169.833C25.5001 186.218 38.7825 199.5 55.1673 199.5L294.833 199.5C311.218 199.5 324.5 186.218 324.5 169.833L324.5 51.1673C324.5 34.7825 311.218 21.5001 294.833 21.5001ZM1.90735e-05 1.07288e-05 1280 1.07288e-05 1280 720 1.90735e-05 720Z" fill-rule="evenodd" clip-rule="evenodd"/></clipPath><clipPath id="clip10"><path d="M380.334 20.5001C363.857 20.5001 350.5 33.8572 350.5 50.334L350.5 169.666C350.5 186.143 363.857 199.5 380.334 199.5L619.666 199.5C636.143 199.5 649.5 186.143 649.5 169.666L649.5 50.334C649.5 33.8572 636.143 20.5001 619.666 20.5001ZM1.90735e-05 1.07288e-05 1280 1.07288e-05 1280 720 1.90735e-05 720Z" fill-rule="evenodd" clip-rule="evenodd"/></clipPath><clipPath id="clip11"><path d="M704.167 23.5001C687.783 23.5001 674.5 36.7825 674.5 53.1673L674.5 171.833C674.5 188.218 687.783 201.5 704.167 201.5L943.833 201.5C960.218 201.5 973.5 188.218 973.5 171.833L973.5 53.1673C973.5 36.7825 960.218 23.5001 943.833 23.5001ZM1.90735e-05 1.07288e-05 1280 1.07288e-05 1280 720 1.90735e-05 720Z" fill-rule="evenodd" clip-rule="evenodd"/></clipPath><clipPath id="clip12"><path d="M1140 255.5C1082.84 255.5 1036.5 302.062 1036.5 359.5 1036.5 416.938 1082.84 463.5 1140 463.5 1197.16 463.5 1243.5 416.938 1243.5 359.5 1243.5 302.062 1197.16 255.5 1140 255.5ZM1.90735e-05 1.07288e-05 1280 1.07288e-05 1280 720 1.90735e-05 720Z" fill-rule="evenodd" clip-rule="evenodd"/></clipPath><clipPath id="clip13"><path d="M1140 482.5C1082.84 482.5 1036.5 529.062 1036.5 586.5 1036.5 643.938 1082.84 690.5 1140 690.5 1197.16 690.5 1243.5 643.938 1243.5 586.5 1243.5 529.062 1197.16 482.5 1140 482.5ZM1.90735e-05 1.07288e-05 1280 1.07288e-05 1280 720 1.90735e-05 720Z" fill-rule="evenodd" clip-rule="evenodd"/></clipPath></defs><g><rect x="0" y="0" width="1280" height="720" fill="#FFFFFF"/><path d="M8.50005 43.8337C8.50005 24.8718 23.8717 9.50005 42.8336 9.50005L953.167 9.50005C972.128 9.50005 987.5 24.8718 987.5 43.8337L987.5 181.166C987.5 200.128 972.128 215.5 953.167 215.5L42.8336 215.5C23.8717 215.5 8.50005 200.128 8.50005 181.166Z" stroke="#172C51" stroke-width="1.33333" stroke-miterlimit="8" fill="#36C1E3" fill-rule="evenodd"/><path d="M1008.5 53.3342C1008.5 29.1253 1028.13 9.50005 1052.33 9.50005L1227.67 9.50005C1251.87 9.50005 1271.5 29.1253 1271.5 53.3342L1271.5 663.666C1271.5 687.875 1251.87 707.5 1227.67 707.5L1052.33 707.5C1028.13 707.5 1008.5 687.875 1008.5 663.666Z" stroke="#172C51" stroke-width="1.33333" stroke-miterlimit="8" fill="#F1C531" fill-rule="evenodd"/><path d="M8.50005 315.001C8.50005 271.646 43.6461 236.5 87.001 236.5L908.999 236.5C952.354 236.5 987.5 271.646 987.5 315.001L987.5 628.999C987.5 672.354 952.354 707.5 908.999 707.5L87.001 707.5C43.6461 707.5 8.50005 672.354 8.50005 628.999Z" stroke="#172C51" stroke-width="1.33333" stroke-miterlimit="8" fill="#F1C531" fill-rule="evenodd"/><g clip-path="url(#clip7)"><g filter="url(#fx0)" transform="translate(1032 24)"><g><path d="M7.34851 114.468C7.34851 55.3077 55.0772 7.34848 113.954 7.34848 172.83 7.34848 220.559 55.3077 220.559 114.468 220.559 173.629 172.83 221.588 113.954 221.588 55.0772 221.588 7.34851 173.629 7.34851 114.468Z" stroke="#172C51" stroke-miterlimit="8" fill="#F24028" fill-rule="evenodd"/></g></g></g><path d="M1036.5 132.5C1036.5 75.0624 1082.84 28.5001 1140 28.5001 1197.16 28.5001 1243.5 75.0624 1243.5 132.5 1243.5 189.938 1197.16 236.5 1140 236.5 1082.84 236.5 1036.5 189.938 1036.5 132.5Z" stroke="#172C51" stroke-width="1.33333" stroke-miterlimit="8" fill="#F24028" fill-rule="evenodd"/><g clip-path="url(#clip8)"><g filter="url(#fx1)" transform="translate(76 266)"><g><path d="M7.34848 76.5316C7.34848 38.3228 38.3228 7.34848 76.5315 7.34848L798.215 7.34848C836.424 7.34848 867.399 38.3228 867.399 76.5316L867.399 353.255C867.399 391.464 836.424 422.439 798.215 422.439L76.5315 422.439C38.3228 422.439 7.34848 391.464 7.34848 353.255Z" stroke="#172C51" stroke-miterlimit="8" fill="#FFFFFF" fill-rule="evenodd"/></g></g></g><path d="M80.5001 337.668C80.5001 300.572 110.572 270.5 147.668 270.5L848.332 270.5C885.428 270.5 915.5 300.572 915.5 337.668L915.5 606.332C915.5 643.428 885.428 673.5 848.332 673.5L147.668 673.5C110.572 673.5 80.5001 643.428 80.5001 606.332Z" stroke="#172C51" stroke-width="1.33333" stroke-miterlimit="8" fill="#FFFFFF" fill-rule="evenodd"/><g clip-path="url(#clip9)"><g filter="url(#fx2)" transform="translate(21 17)"><g><path d="M7.34848 37.9057C7.34848 21.0294 21.0294 7.34848 37.9057 7.34848L284.761 7.34848C301.638 7.34848 315.318 21.0294 315.318 37.9057L315.318 160.131C315.318 177.008 301.638 190.688 284.761 190.688L37.9057 190.688C21.0294 190.688 7.34848 177.008 7.34848 160.131Z" stroke="#172C51" stroke-miterlimit="8" fill="#4472C4" fill-rule="evenodd"/></g></g></g><path d="M25.5001 51.1673C25.5001 34.7825 38.7825 21.5001 55.1672 21.5001L294.833 21.5001C311.218 21.5001 324.5 34.7825 324.5 51.1673L324.5 169.833C324.5 186.218 311.218 199.5 294.833 199.5L55.1672 199.5C38.7825 199.5 25.5001 186.218 25.5001 169.833Z" stroke="#172C51" stroke-width="1.33333" stroke-miterlimit="8" fill="#4472C4" fill-rule="evenodd"/><g clip-path="url(#clip10)"><g filter="url(#fx3)" transform="translate(346 16)"><g><path d="M7.34848 38.0775C7.34848 21.1063 21.1063 7.34848 38.0774 7.34848L284.59 7.34848C301.561 7.34848 315.318 21.1063 315.318 38.0775L315.318 160.989C315.318 177.961 301.561 191.718 284.59 191.718L38.0774 191.718C21.1063 191.718 7.34848 177.961 7.34848 160.989Z" stroke="#172C51" stroke-miterlimit="8" fill="#4472C4" fill-rule="evenodd"/></g></g></g><path d="M350.5 50.334C350.5 33.8572 363.857 20.5001 380.334 20.5001L619.666 20.5001C636.143 20.5001 649.5 33.8572 649.5 50.334L649.5 169.666C649.5 186.143 636.143 199.5 619.666 199.5L380.334 199.5C363.857 199.5 350.5 186.143 350.5 169.666Z" stroke="#172C51" stroke-width="1.33333" stroke-miterlimit="8" fill="#4472C4" fill-rule="evenodd"/><g clip-path="url(#clip11)"><g filter="url(#fx4)" transform="translate(670 19)"><g><path d="M7.3418 37.6024C7.3418 20.8899 20.8899 7.34181 37.6023 7.34181L282.061 7.34181C298.774 7.34181 312.322 20.8899 312.322 37.6024L312.322 158.641C312.322 175.354 298.774 188.902 282.061 188.902L37.6023 188.902C20.8899 188.902 7.3418 175.354 7.3418 158.641Z" stroke="#172C51" stroke-miterlimit="8" fill="#4472C4" fill-rule="evenodd"/></g></g></g><path d="M674.5 53.1673C674.5 36.7825 687.783 23.5001 704.167 23.5001L943.833 23.5001C960.218 23.5001 973.5 36.7825 973.5 53.1673L973.5 171.833C973.5 188.218 960.218 201.5 943.833 201.5L704.167 201.5C687.783 201.5 674.5 188.218 674.5 171.833Z" stroke="#172C51" stroke-width="1.33333" stroke-miterlimit="8" fill="#4472C4" fill-rule="evenodd"/><g clip-path="url(#clip12)"><g filter="url(#fx5)" transform="translate(1032 251)"><g><path d="M7.34851 114.468C7.34851 55.3077 55.0772 7.34848 113.954 7.34848 172.83 7.34848 220.559 55.3077 220.559 114.468 220.559 173.629 172.83 221.588 113.954 221.588 55.0772 221.588 7.34851 173.629 7.34851 114.468Z" stroke="#172C51" stroke-miterlimit="8" fill="#FFC000" fill-rule="evenodd"/></g></g></g><path d="M1036.5 359.5C1036.5 302.062 1082.84 255.5 1140 255.5 1197.16 255.5 1243.5 302.062 1243.5 359.5 1243.5 416.938 1197.16 463.5 1140 463.5 1082.84 463.5 1036.5 416.938 1036.5 359.5Z" stroke="#172C51" stroke-width="1.33333" stroke-miterlimit="8" fill="#FFC000" fill-rule="evenodd"/><g clip-path="url(#clip13)"><g filter="url(#fx6)" transform="translate(1032 478)"><g><path d="M7.34851 114.468C7.34851 55.3077 55.0772 7.34848 113.954 7.34848 172.83 7.34848 220.559 55.3077 220.559 114.468 220.559 173.629 172.83 221.588 113.954 221.588 55.0772 221.588 7.34851 173.629 7.34851 114.468Z" stroke="#172C51" stroke-miterlimit="8" fill="#00B050" fill-rule="evenodd"/></g></g></g><path d="M1036.5 586.5C1036.5 529.062 1082.84 482.5 1140 482.5 1197.16 482.5 1243.5 529.062 1243.5 586.5 1243.5 643.938 1197.16 690.5 1140 690.5 1082.84 690.5 1036.5 643.938 1036.5 586.5Z" stroke="#172C51" stroke-width="1.33333" stroke-miterlimit="8" fill="#00B050" fill-rule="evenodd"/></g></svg>